<mxfile host="app.diagrams.net" modified="2022-06-13T08:13:33.478Z" agent="5.0 (Macintosh; Intel Mac OS X 10_15_7) AppleWebKit/605.1.15 (KHTML, like Gecko) Version/15.4 Safari/605.1.15" etag="I-p2jfjvYgMOBQZ77q3j" version="19.0.3" type="github" pages="2">
  <diagram id="C5RBs43oDa-KdzZeNtuy" name="Page-1">
    <mxGraphModel dx="946" dy="645" grid="1" gridSize="8" guides="1" tooltips="1" connect="1" arrows="1" fold="1" page="1" pageScale="1" pageWidth="827" pageHeight="1169" math="0" shadow="0">
      <root>
        <mxCell id="WIyWlLk6GJQsqaUBKTNV-0" />
        <mxCell id="WIyWlLk6GJQsqaUBKTNV-1" parent="WIyWlLk6GJQsqaUBKTNV-0" />
        <mxCell id="4tfxJ9bZ_4G7wPluMYL_-0" value="User" style="swimlane;fontStyle=2;align=center;verticalAlign=top;childLayout=stackLayout;horizontal=1;startSize=26;horizontalStack=0;resizeParent=1;resizeLast=0;collapsible=1;marginBottom=0;rounded=0;shadow=0;strokeWidth=1;" parent="WIyWlLk6GJQsqaUBKTNV-1" vertex="1">
          <mxGeometry x="284" y="24" width="260" height="256" as="geometry">
            <mxRectangle x="312" y="24" width="160" height="26" as="alternateBounds" />
          </mxGeometry>
        </mxCell>
        <mxCell id="4tfxJ9bZ_4G7wPluMYL_-25" value="-name:String&#xa;-account:String&#xa;-password:String&#xa;-identity:String" style="text;align=left;verticalAlign=top;spacingLeft=4;spacingRight=4;overflow=hidden;rotatable=0;points=[[0,0.5],[1,0.5]];portConstraint=eastwest;" parent="4tfxJ9bZ_4G7wPluMYL_-0" vertex="1">
          <mxGeometry y="26" width="260" height="62" as="geometry" />
        </mxCell>
        <mxCell id="4tfxJ9bZ_4G7wPluMYL_-4" value="" style="line;html=1;strokeWidth=1;align=left;verticalAlign=middle;spacingTop=-1;spacingLeft=3;spacingRight=3;rotatable=0;labelPosition=right;points=[];portConstraint=eastwest;" parent="4tfxJ9bZ_4G7wPluMYL_-0" vertex="1">
          <mxGeometry y="88" width="260" height="16" as="geometry" />
        </mxCell>
        <mxCell id="4tfxJ9bZ_4G7wPluMYL_-24" value="&lt;constructor&gt;User(name:String,account:String,&#xa;    password:Strinng,identity:String)&#xa;+search()&#xa;+setName(name:String)&#xa;+getName():String&#xa;+setAccount(account:String)&#xa;+getAccount():String&#xa;+setPassword(password:String)&#xa;+getPassword():String&#xa;+setIdentity(identity:String)&#xa;+getIdentity():String" style="text;align=left;verticalAlign=top;spacingLeft=4;spacingRight=4;overflow=hidden;rotatable=0;points=[[0,0.5],[1,0.5]];portConstraint=eastwest;" parent="4tfxJ9bZ_4G7wPluMYL_-0" vertex="1">
          <mxGeometry y="104" width="260" height="144" as="geometry" />
        </mxCell>
        <mxCell id="4tfxJ9bZ_4G7wPluMYL_-6" value="" style="resizable=0;align=left;verticalAlign=bottom;labelBackgroundColor=none;fontSize=12;spacing=2;" parent="WIyWlLk6GJQsqaUBKTNV-1" connectable="0" vertex="1">
          <mxGeometry x="472" y="103" as="geometry" />
        </mxCell>
        <mxCell id="4tfxJ9bZ_4G7wPluMYL_-9" value="" style="endArrow=block;endSize=10;endFill=0;shadow=0;strokeWidth=1;rounded=0;edgeStyle=elbowEdgeStyle;elbow=vertical;" parent="WIyWlLk6GJQsqaUBKTNV-1" edge="1">
          <mxGeometry width="160" relative="1" as="geometry">
            <mxPoint x="519" y="382" as="sourcePoint" />
            <mxPoint x="409" y="280" as="targetPoint" />
          </mxGeometry>
        </mxCell>
        <mxCell id="4tfxJ9bZ_4G7wPluMYL_-10" value="" style="endArrow=block;endSize=10;endFill=0;shadow=0;strokeWidth=1;rounded=0;edgeStyle=elbowEdgeStyle;elbow=vertical;" parent="WIyWlLk6GJQsqaUBKTNV-1" edge="1">
          <mxGeometry width="160" relative="1" as="geometry">
            <mxPoint x="309" y="382" as="sourcePoint" />
            <mxPoint x="409" y="280" as="targetPoint" />
          </mxGeometry>
        </mxCell>
        <mxCell id="4tfxJ9bZ_4G7wPluMYL_-27" value="Member" style="swimlane;fontStyle=2;align=center;verticalAlign=top;childLayout=stackLayout;horizontal=1;startSize=26;horizontalStack=0;resizeParent=1;resizeLast=0;collapsible=1;marginBottom=0;rounded=0;shadow=0;strokeWidth=1;" parent="WIyWlLk6GJQsqaUBKTNV-1" vertex="1">
          <mxGeometry x="144" y="384" width="288" height="357" as="geometry">
            <mxRectangle x="230" y="740" width="160" height="26" as="alternateBounds" />
          </mxGeometry>
        </mxCell>
        <mxCell id="4tfxJ9bZ_4G7wPluMYL_-70" value="-limit_book:int&#xa;-fine:int&#xa;-due_date:int&#xa;#borrowing:ArrayList&lt;Book&gt;&#xa;#books:ArrayList&lt;Book&gt;&#xa;#history:ArrayList&lt;Book&gt;&#xa;" style="text;align=left;verticalAlign=top;spacingLeft=4;spacingRight=4;overflow=hidden;rotatable=0;points=[[0,0.5],[1,0.5]];portConstraint=eastwest;" parent="4tfxJ9bZ_4G7wPluMYL_-27" vertex="1">
          <mxGeometry y="26" width="288" height="96" as="geometry" />
        </mxCell>
        <mxCell id="4tfxJ9bZ_4G7wPluMYL_-31" value="" style="line;html=1;strokeWidth=1;align=left;verticalAlign=middle;spacingTop=-1;spacingLeft=3;spacingRight=3;rotatable=0;labelPosition=right;points=[];portConstraint=eastwest;" parent="4tfxJ9bZ_4G7wPluMYL_-27" vertex="1">
          <mxGeometry y="122" width="288" height="6" as="geometry" />
        </mxCell>
        <mxCell id="4tfxJ9bZ_4G7wPluMYL_-68" value="&lt;constructor&gt;Member(name:String, account:String,&#xa;    password:String,identity:String)&#xa;+borrowBook()&#xa;+borrowBook_parameter()&#xa;+returnBook()&#xa;+searchBook()&#xa;+check_limit_book()&#xa;+show_information()&#xa;+show_history()&#xa;+setLimit_book(limit_book:int)&#xa;+getLimit_book():int&#xa;+setFine(fine:int)&#xa;+getFine():int&#xa;+setDue_date(due_date:int)&#xa;+getDue_date():int&#xa;&#xa;" style="text;align=left;verticalAlign=top;spacingLeft=4;spacingRight=4;overflow=hidden;rotatable=0;points=[[0,0.5],[1,0.5]];portConstraint=eastwest;" parent="4tfxJ9bZ_4G7wPluMYL_-27" vertex="1">
          <mxGeometry y="128" width="288" height="216" as="geometry" />
        </mxCell>
        <mxCell id="4tfxJ9bZ_4G7wPluMYL_-33" value="" style="resizable=0;align=left;verticalAlign=bottom;labelBackgroundColor=none;fontSize=12;" parent="WIyWlLk6GJQsqaUBKTNV-1" connectable="0" vertex="1">
          <mxGeometry x="360" y="457" as="geometry" />
        </mxCell>
        <mxCell id="4tfxJ9bZ_4G7wPluMYL_-34" value="Administrator" style="swimlane;fontStyle=2;align=center;verticalAlign=top;childLayout=stackLayout;horizontal=1;startSize=26;horizontalStack=0;resizeParent=1;resizeLast=0;collapsible=1;marginBottom=0;rounded=0;shadow=0;strokeWidth=1;" parent="WIyWlLk6GJQsqaUBKTNV-1" vertex="1">
          <mxGeometry x="480" y="384" width="232" height="170" as="geometry">
            <mxRectangle x="230" y="740" width="160" height="26" as="alternateBounds" />
          </mxGeometry>
        </mxCell>
        <mxCell id="4tfxJ9bZ_4G7wPluMYL_-71" value="-books:ArrayList&lt;Book&gt;" style="text;align=left;verticalAlign=top;spacingLeft=4;spacingRight=4;overflow=hidden;rotatable=0;points=[[0,0.5],[1,0.5]];portConstraint=eastwest;" parent="4tfxJ9bZ_4G7wPluMYL_-34" vertex="1">
          <mxGeometry y="26" width="232" height="24" as="geometry" />
        </mxCell>
        <mxCell id="4tfxJ9bZ_4G7wPluMYL_-38" value="" style="line;html=1;strokeWidth=1;align=left;verticalAlign=middle;spacingTop=-1;spacingLeft=3;spacingRight=3;rotatable=0;labelPosition=right;points=[];portConstraint=eastwest;" parent="4tfxJ9bZ_4G7wPluMYL_-34" vertex="1">
          <mxGeometry y="50" width="232" height="8" as="geometry" />
        </mxCell>
        <mxCell id="4tfxJ9bZ_4G7wPluMYL_-72" value="&lt;constructor&gt;Administrator(name:String,&#xa;    account:String,password:String)&#xa;+mainPage_administrator()&#xa;+addBook()&#xa;+modifyBook()&#xa;+deleteBook()&#xa;+show_information()" style="text;align=left;verticalAlign=top;spacingLeft=4;spacingRight=4;overflow=hidden;rotatable=0;points=[[0,0.5],[1,0.5]];portConstraint=eastwest;" parent="4tfxJ9bZ_4G7wPluMYL_-34" vertex="1">
          <mxGeometry y="58" width="232" height="112" as="geometry" />
        </mxCell>
        <mxCell id="4tfxJ9bZ_4G7wPluMYL_-40" value="" style="resizable=0;align=left;verticalAlign=bottom;labelBackgroundColor=none;fontSize=12;" parent="WIyWlLk6GJQsqaUBKTNV-1" connectable="0" vertex="1">
          <mxGeometry x="640" y="457" as="geometry" />
        </mxCell>
        <mxCell id="4tfxJ9bZ_4G7wPluMYL_-45" value="" style="endArrow=block;endSize=10;endFill=0;shadow=0;strokeWidth=1;rounded=0;edgeStyle=elbowEdgeStyle;elbow=vertical;" parent="WIyWlLk6GJQsqaUBKTNV-1" edge="1">
          <mxGeometry width="160" relative="1" as="geometry">
            <mxPoint x="519" y="382" as="sourcePoint" />
            <mxPoint x="409" y="280" as="targetPoint" />
          </mxGeometry>
        </mxCell>
        <mxCell id="4tfxJ9bZ_4G7wPluMYL_-46" value="" style="endArrow=block;endSize=10;endFill=0;shadow=0;strokeWidth=1;rounded=0;edgeStyle=elbowEdgeStyle;elbow=vertical;" parent="WIyWlLk6GJQsqaUBKTNV-1" edge="1">
          <mxGeometry width="160" relative="1" as="geometry">
            <mxPoint x="309" y="382" as="sourcePoint" />
            <mxPoint x="409" y="280" as="targetPoint" />
          </mxGeometry>
        </mxCell>
        <mxCell id="4tfxJ9bZ_4G7wPluMYL_-48" value="" style="endArrow=block;endSize=10;endFill=0;shadow=0;strokeWidth=1;rounded=0;edgeStyle=elbowEdgeStyle;elbow=vertical;" parent="WIyWlLk6GJQsqaUBKTNV-1" edge="1">
          <mxGeometry width="160" relative="1" as="geometry">
            <mxPoint x="73" y="843" as="sourcePoint" />
            <mxPoint x="284" y="741" as="targetPoint" />
          </mxGeometry>
        </mxCell>
        <mxCell id="4tfxJ9bZ_4G7wPluMYL_-49" value="" style="endArrow=none;html=1;rounded=0;exitX=0.5;exitY=0;exitDx=0;exitDy=0;" parent="WIyWlLk6GJQsqaUBKTNV-1" source="4tfxJ9bZ_4G7wPluMYL_-56" edge="1">
          <mxGeometry width="50" height="50" relative="1" as="geometry">
            <mxPoint x="410" y="822" as="sourcePoint" />
            <mxPoint x="424" y="792" as="targetPoint" />
            <Array as="points" />
          </mxGeometry>
        </mxCell>
        <mxCell id="4tfxJ9bZ_4G7wPluMYL_-50" value="Student" style="swimlane;fontStyle=0;align=center;verticalAlign=top;childLayout=stackLayout;horizontal=1;startSize=26;horizontalStack=0;resizeParent=1;resizeLast=0;collapsible=1;marginBottom=0;rounded=0;shadow=0;strokeWidth=1;" parent="WIyWlLk6GJQsqaUBKTNV-1" vertex="1">
          <mxGeometry x="40" y="840" width="192" height="138" as="geometry">
            <mxRectangle x="130" y="380" width="160" height="26" as="alternateBounds" />
          </mxGeometry>
        </mxCell>
        <mxCell id="4tfxJ9bZ_4G7wPluMYL_-51" value="  " style="text;align=left;verticalAlign=top;spacingLeft=4;spacingRight=4;overflow=hidden;rotatable=0;points=[[0,0.5],[1,0.5]];portConstraint=eastwest;" parent="4tfxJ9bZ_4G7wPluMYL_-50" vertex="1">
          <mxGeometry y="26" width="192" height="26" as="geometry" />
        </mxCell>
        <mxCell id="4tfxJ9bZ_4G7wPluMYL_-53" value="" style="line;html=1;strokeWidth=1;align=left;verticalAlign=middle;spacingTop=-1;spacingLeft=3;spacingRight=3;rotatable=0;labelPosition=right;points=[];portConstraint=eastwest;" parent="4tfxJ9bZ_4G7wPluMYL_-50" vertex="1">
          <mxGeometry y="52" width="192" height="8" as="geometry" />
        </mxCell>
        <mxCell id="Ygesbwfx5cQztsqIQf3q-1" value="&amp;lt;constructor&amp;gt;Student(name:String,&lt;br style=&quot;padding: 0px; margin: 0px;&quot;&gt;&amp;nbsp;&amp;nbsp;&amp;nbsp;&amp;nbsp;account:String,password:String)" style="text;whiteSpace=wrap;html=1;" vertex="1" parent="4tfxJ9bZ_4G7wPluMYL_-50">
          <mxGeometry y="60" width="192" height="40" as="geometry" />
        </mxCell>
        <mxCell id="4tfxJ9bZ_4G7wPluMYL_-56" value="Staff" style="swimlane;fontStyle=0;align=center;verticalAlign=top;childLayout=stackLayout;horizontal=1;startSize=26;horizontalStack=0;resizeParent=1;resizeLast=0;collapsible=1;marginBottom=0;rounded=0;shadow=0;strokeWidth=1;" parent="WIyWlLk6GJQsqaUBKTNV-1" vertex="1">
          <mxGeometry x="328" y="840" width="192" height="138" as="geometry">
            <mxRectangle x="130" y="380" width="160" height="26" as="alternateBounds" />
          </mxGeometry>
        </mxCell>
        <mxCell id="4tfxJ9bZ_4G7wPluMYL_-57" value="  &#xa;" style="text;align=left;verticalAlign=top;spacingLeft=4;spacingRight=4;overflow=hidden;rotatable=0;points=[[0,0.5],[1,0.5]];portConstraint=eastwest;" parent="4tfxJ9bZ_4G7wPluMYL_-56" vertex="1">
          <mxGeometry y="26" width="192" height="26" as="geometry" />
        </mxCell>
        <mxCell id="4tfxJ9bZ_4G7wPluMYL_-59" value="" style="line;html=1;strokeWidth=1;align=left;verticalAlign=middle;spacingTop=-1;spacingLeft=3;spacingRight=3;rotatable=0;labelPosition=right;points=[];portConstraint=eastwest;" parent="4tfxJ9bZ_4G7wPluMYL_-56" vertex="1">
          <mxGeometry y="52" width="192" height="8" as="geometry" />
        </mxCell>
        <mxCell id="Ygesbwfx5cQztsqIQf3q-2" value="&amp;lt;constructor&amp;gt;Staff(name:String,&lt;br style=&quot;padding: 0px; margin: 0px;&quot;&gt;&amp;nbsp;&amp;nbsp;&amp;nbsp;&amp;nbsp;account:String,password:String)" style="text;whiteSpace=wrap;html=1;" vertex="1" parent="4tfxJ9bZ_4G7wPluMYL_-56">
          <mxGeometry y="60" width="192" height="40" as="geometry" />
        </mxCell>
        <mxCell id="4tfxJ9bZ_4G7wPluMYL_-62" value="Teacher" style="swimlane;fontStyle=0;align=center;verticalAlign=top;childLayout=stackLayout;horizontal=1;startSize=26;horizontalStack=0;resizeParent=1;resizeLast=0;collapsible=1;marginBottom=0;rounded=0;shadow=0;strokeWidth=1;" parent="WIyWlLk6GJQsqaUBKTNV-1" vertex="1">
          <mxGeometry x="608" y="840" width="200" height="138" as="geometry">
            <mxRectangle x="130" y="380" width="160" height="26" as="alternateBounds" />
          </mxGeometry>
        </mxCell>
        <mxCell id="4tfxJ9bZ_4G7wPluMYL_-63" value="  &#xa;" style="text;align=left;verticalAlign=top;spacingLeft=4;spacingRight=4;overflow=hidden;rotatable=0;points=[[0,0.5],[1,0.5]];portConstraint=eastwest;" parent="4tfxJ9bZ_4G7wPluMYL_-62" vertex="1">
          <mxGeometry y="26" width="200" height="26" as="geometry" />
        </mxCell>
        <mxCell id="4tfxJ9bZ_4G7wPluMYL_-65" value="" style="line;html=1;strokeWidth=1;align=left;verticalAlign=middle;spacingTop=-1;spacingLeft=3;spacingRight=3;rotatable=0;labelPosition=right;points=[];portConstraint=eastwest;" parent="4tfxJ9bZ_4G7wPluMYL_-62" vertex="1">
          <mxGeometry y="52" width="200" height="8" as="geometry" />
        </mxCell>
        <mxCell id="Ygesbwfx5cQztsqIQf3q-3" value="&amp;lt;constructor&amp;gt;Teacher(name:String,&lt;br style=&quot;padding: 0px; margin: 0px;&quot;&gt;&amp;nbsp;&amp;nbsp;&amp;nbsp;&amp;nbsp;account:String,password:String)" style="text;whiteSpace=wrap;html=1;" vertex="1" parent="4tfxJ9bZ_4G7wPluMYL_-62">
          <mxGeometry y="60" width="200" height="40" as="geometry" />
        </mxCell>
        <mxCell id="Ygesbwfx5cQztsqIQf3q-0" value="" style="endArrow=none;html=1;rounded=0;entryX=0.5;entryY=0;entryDx=0;entryDy=0;" edge="1" parent="WIyWlLk6GJQsqaUBKTNV-1" target="4tfxJ9bZ_4G7wPluMYL_-62">
          <mxGeometry width="50" height="50" relative="1" as="geometry">
            <mxPoint x="280" y="792" as="sourcePoint" />
            <mxPoint x="738" y="792" as="targetPoint" />
            <Array as="points">
              <mxPoint x="408" y="792" />
              <mxPoint x="708" y="792" />
            </Array>
          </mxGeometry>
        </mxCell>
      </root>
    </mxGraphModel>
  </diagram>
  <diagram id="0kEtttgrilFnb2NdTajr" name="Page-2">
    <mxGraphModel dx="1261" dy="860" grid="1" gridSize="10" guides="1" tooltips="1" connect="1" arrows="1" fold="1" page="1" pageScale="1" pageWidth="827" pageHeight="1169" math="0" shadow="0">
      <root>
        <mxCell id="0" />
        <mxCell id="1" parent="0" />
        <mxCell id="3mPvE_npUFOP6Ap9xGwE-1" value="Date" style="swimlane;fontStyle=0;align=center;verticalAlign=top;childLayout=stackLayout;horizontal=1;startSize=26;horizontalStack=0;resizeParent=1;resizeLast=0;collapsible=1;marginBottom=0;rounded=0;shadow=0;strokeWidth=1;" vertex="1" parent="1">
          <mxGeometry x="110" y="40" width="240" height="144" as="geometry">
            <mxRectangle x="130" y="380" width="160" height="26" as="alternateBounds" />
          </mxGeometry>
        </mxCell>
        <mxCell id="3mPvE_npUFOP6Ap9xGwE-2" value="-borrow_date:LocalDate&#xa;-return_date:LocalDate" style="text;align=left;verticalAlign=top;spacingLeft=4;spacingRight=4;overflow=hidden;rotatable=0;points=[[0,0.5],[1,0.5]];portConstraint=eastwest;" vertex="1" parent="3mPvE_npUFOP6Ap9xGwE-1">
          <mxGeometry y="26" width="240" height="40" as="geometry" />
        </mxCell>
        <mxCell id="3mPvE_npUFOP6Ap9xGwE-3" value="" style="line;html=1;strokeWidth=1;align=left;verticalAlign=middle;spacingTop=-1;spacingLeft=3;spacingRight=3;rotatable=0;labelPosition=right;points=[];portConstraint=eastwest;" vertex="1" parent="3mPvE_npUFOP6Ap9xGwE-1">
          <mxGeometry y="66" width="240" height="8" as="geometry" />
        </mxCell>
        <mxCell id="3mPvE_npUFOP6Ap9xGwE-4" value="+setBorrow_date(borrow_date:LocalDate)&lt;br&gt;+getBorrow_date():LocalDate&lt;br&gt;+setReturn_date(return_date:LocalDate)&lt;br&gt;+getReturn_date():LocalDate&lt;br&gt;" style="text;whiteSpace=wrap;html=1;" vertex="1" parent="3mPvE_npUFOP6Ap9xGwE-1">
          <mxGeometry y="74" width="240" height="70" as="geometry" />
        </mxCell>
        <mxCell id="9Wcd23R5gDiXODAYeB8w-1" value="" style="endArrow=block;endSize=10;endFill=0;shadow=0;strokeWidth=1;rounded=0;edgeStyle=elbowEdgeStyle;elbow=vertical;" edge="1" parent="1">
          <mxGeometry width="160" relative="1" as="geometry">
            <mxPoint x="230" y="240" as="sourcePoint" />
            <mxPoint x="230" y="184" as="targetPoint" />
            <Array as="points" />
          </mxGeometry>
        </mxCell>
        <mxCell id="9Wcd23R5gDiXODAYeB8w-2" value="Book" style="swimlane;fontStyle=0;align=center;verticalAlign=top;childLayout=stackLayout;horizontal=1;startSize=26;horizontalStack=0;resizeParent=1;resizeLast=0;collapsible=1;marginBottom=0;rounded=0;shadow=0;strokeWidth=1;" vertex="1" parent="1">
          <mxGeometry x="110" y="240" width="240" height="304" as="geometry">
            <mxRectangle x="130" y="380" width="160" height="26" as="alternateBounds" />
          </mxGeometry>
        </mxCell>
        <mxCell id="9Wcd23R5gDiXODAYeB8w-3" value="-title:String&#xa;-author:String&#xa;-publisher:String&#xa;-status:String" style="text;align=left;verticalAlign=top;spacingLeft=4;spacingRight=4;overflow=hidden;rotatable=0;points=[[0,0.5],[1,0.5]];portConstraint=eastwest;" vertex="1" parent="9Wcd23R5gDiXODAYeB8w-2">
          <mxGeometry y="26" width="240" height="70" as="geometry" />
        </mxCell>
        <mxCell id="9Wcd23R5gDiXODAYeB8w-4" value="" style="line;html=1;strokeWidth=1;align=left;verticalAlign=middle;spacingTop=-1;spacingLeft=3;spacingRight=3;rotatable=0;labelPosition=right;points=[];portConstraint=eastwest;" vertex="1" parent="9Wcd23R5gDiXODAYeB8w-2">
          <mxGeometry y="96" width="240" height="8" as="geometry" />
        </mxCell>
        <mxCell id="9Wcd23R5gDiXODAYeB8w-5" value="&amp;lt;constructor&amp;gt;Book(title:String,author:String,&lt;br&gt;&lt;span style=&quot;white-space: pre;&quot;&gt;	publisher:String,status:String)&lt;/span&gt;&lt;br&gt;+toString():String&lt;br&gt;+search_toString():String&lt;br&gt;+setTitle(title:String)&lt;br&gt;+getTitle():String&lt;br&gt;+setAuthor(author:String)&lt;br&gt;+getAuthor():String&lt;br&gt;+setPublisher(publisher:String)&lt;br&gt;+getPublisher():String&lt;br&gt;+setStatus(status:String)&lt;br&gt;+getStatus():String&lt;br&gt;+toObjectArray():Object[]" style="text;whiteSpace=wrap;html=1;" vertex="1" parent="9Wcd23R5gDiXODAYeB8w-2">
          <mxGeometry y="104" width="240" height="200" as="geometry" />
        </mxCell>
        <mxCell id="9Wcd23R5gDiXODAYeB8w-6" value="JFrame" style="swimlane;fontStyle=0;align=center;verticalAlign=top;childLayout=stackLayout;horizontal=1;startSize=26;horizontalStack=0;resizeParent=1;resizeLast=0;collapsible=1;marginBottom=0;rounded=0;shadow=0;strokeWidth=1;" vertex="1" parent="1">
          <mxGeometry x="420" y="490" width="140" height="50" as="geometry">
            <mxRectangle x="130" y="380" width="160" height="26" as="alternateBounds" />
          </mxGeometry>
        </mxCell>
        <mxCell id="9Wcd23R5gDiXODAYeB8w-8" value="" style="line;html=1;strokeWidth=1;align=left;verticalAlign=middle;spacingTop=-1;spacingLeft=3;spacingRight=3;rotatable=0;labelPosition=right;points=[];portConstraint=eastwest;" vertex="1" parent="9Wcd23R5gDiXODAYeB8w-6">
          <mxGeometry y="26" width="140" height="8" as="geometry" />
        </mxCell>
        <mxCell id="9Wcd23R5gDiXODAYeB8w-10" value="" style="endArrow=block;endSize=10;endFill=0;shadow=0;strokeWidth=1;rounded=0;edgeStyle=elbowEdgeStyle;elbow=vertical;" edge="1" parent="1">
          <mxGeometry width="160" relative="1" as="geometry">
            <mxPoint x="370.5" y="590" as="sourcePoint" />
            <mxPoint x="490" y="540" as="targetPoint" />
            <Array as="points">
              <mxPoint x="560.5" y="570" />
            </Array>
          </mxGeometry>
        </mxCell>
        <mxCell id="9Wcd23R5gDiXODAYeB8w-11" value="Table" style="swimlane;fontStyle=0;align=center;verticalAlign=top;childLayout=stackLayout;horizontal=1;startSize=26;horizontalStack=0;resizeParent=1;resizeLast=0;collapsible=1;marginBottom=0;rounded=0;shadow=0;strokeWidth=1;" vertex="1" parent="1">
          <mxGeometry x="510" y="590" width="240" height="204" as="geometry">
            <mxRectangle x="130" y="380" width="160" height="26" as="alternateBounds" />
          </mxGeometry>
        </mxCell>
        <mxCell id="9Wcd23R5gDiXODAYeB8w-12" value="-dataTitle:String[]&#xa;-contentPane:JPanel&#xa;-textField:JTextField&#xa;-table:JTable&#xa;-scrollPane:JScrollPane&#xa;+login_user:Member&#xa;" style="text;align=left;verticalAlign=top;spacingLeft=4;spacingRight=4;overflow=hidden;rotatable=0;points=[[0,0.5],[1,0.5]];portConstraint=eastwest;" vertex="1" parent="9Wcd23R5gDiXODAYeB8w-11">
          <mxGeometry y="26" width="240" height="100" as="geometry" />
        </mxCell>
        <mxCell id="9Wcd23R5gDiXODAYeB8w-13" value="" style="line;html=1;strokeWidth=1;align=left;verticalAlign=middle;spacingTop=-1;spacingLeft=3;spacingRight=3;rotatable=0;labelPosition=right;points=[];portConstraint=eastwest;" vertex="1" parent="9Wcd23R5gDiXODAYeB8w-11">
          <mxGeometry y="126" width="240" height="8" as="geometry" />
        </mxCell>
        <mxCell id="9Wcd23R5gDiXODAYeB8w-14" value="&amp;lt;constructor&amp;gt;Table(user:Member)&lt;br&gt;+actionPerformed(e:ActionEvent)" style="text;whiteSpace=wrap;html=1;" vertex="1" parent="9Wcd23R5gDiXODAYeB8w-11">
          <mxGeometry y="134" width="240" height="70" as="geometry" />
        </mxCell>
        <mxCell id="9Wcd23R5gDiXODAYeB8w-16" value="&lt;interface&gt;&#xa;ActionListener" style="swimlane;fontStyle=0;align=center;verticalAlign=top;childLayout=stackLayout;horizontal=1;startSize=40;horizontalStack=0;resizeParent=1;resizeLast=0;collapsible=1;marginBottom=0;rounded=0;shadow=0;strokeWidth=1;" vertex="1" parent="1">
          <mxGeometry x="650" y="390" width="140" height="70" as="geometry">
            <mxRectangle x="130" y="380" width="160" height="26" as="alternateBounds" />
          </mxGeometry>
        </mxCell>
        <mxCell id="9Wcd23R5gDiXODAYeB8w-17" value="" style="line;html=1;strokeWidth=1;align=left;verticalAlign=middle;spacingTop=-1;spacingLeft=3;spacingRight=3;rotatable=0;labelPosition=right;points=[];portConstraint=eastwest;" vertex="1" parent="9Wcd23R5gDiXODAYeB8w-16">
          <mxGeometry y="40" width="140" height="15" as="geometry" />
        </mxCell>
        <mxCell id="9Wcd23R5gDiXODAYeB8w-18" value="Search_table" style="swimlane;fontStyle=0;align=center;verticalAlign=top;childLayout=stackLayout;horizontal=1;startSize=26;horizontalStack=0;resizeParent=1;resizeLast=0;collapsible=1;marginBottom=0;rounded=0;shadow=0;strokeWidth=1;" vertex="1" parent="1">
          <mxGeometry x="214" y="590" width="200" height="184" as="geometry">
            <mxRectangle x="130" y="380" width="160" height="26" as="alternateBounds" />
          </mxGeometry>
        </mxCell>
        <mxCell id="9Wcd23R5gDiXODAYeB8w-22" value="-data:String[][]&lt;br&gt;-dataTitle:String[]&lt;br&gt;-contentPane:JPanel&lt;br&gt;-textField:JTextfield&lt;br&gt;-textField_1:JTextfield&lt;br&gt;-textField_2:JTextfield&lt;br&gt;table:JTable&lt;br&gt;-scrollPane:JScrollPane" style="text;whiteSpace=wrap;html=1;" vertex="1" parent="9Wcd23R5gDiXODAYeB8w-18">
          <mxGeometry y="26" width="200" height="120" as="geometry" />
        </mxCell>
        <mxCell id="9Wcd23R5gDiXODAYeB8w-19" value="" style="line;html=1;strokeWidth=1;align=left;verticalAlign=middle;spacingTop=-1;spacingLeft=3;spacingRight=3;rotatable=0;labelPosition=right;points=[];portConstraint=eastwest;" vertex="1" parent="9Wcd23R5gDiXODAYeB8w-18">
          <mxGeometry y="146" width="200" height="8" as="geometry" />
        </mxCell>
        <mxCell id="9Wcd23R5gDiXODAYeB8w-23" value="+Search_table()" style="text;whiteSpace=wrap;html=1;" vertex="1" parent="9Wcd23R5gDiXODAYeB8w-18">
          <mxGeometry y="154" width="200" height="30" as="geometry" />
        </mxCell>
        <mxCell id="9Wcd23R5gDiXODAYeB8w-26" value="" style="endArrow=none;html=1;rounded=0;exitX=0.5;exitY=0;exitDx=0;exitDy=0;" edge="1" parent="1" source="9Wcd23R5gDiXODAYeB8w-11">
          <mxGeometry width="50" height="50" relative="1" as="geometry">
            <mxPoint x="440" y="720" as="sourcePoint" />
            <mxPoint x="490" y="570" as="targetPoint" />
            <Array as="points">
              <mxPoint x="630" y="570" />
            </Array>
          </mxGeometry>
        </mxCell>
        <mxCell id="9Wcd23R5gDiXODAYeB8w-29" value="" style="endArrow=block;endSize=10;endFill=0;shadow=0;strokeWidth=1;rounded=0;edgeStyle=elbowEdgeStyle;elbow=vertical;exitX=0.5;exitY=0;exitDx=0;exitDy=0;dashed=1;" edge="1" parent="1" source="9Wcd23R5gDiXODAYeB8w-11">
          <mxGeometry width="160" relative="1" as="geometry">
            <mxPoint x="630" y="580" as="sourcePoint" />
            <mxPoint x="719.5" y="460" as="targetPoint" />
            <Array as="points">
              <mxPoint x="790" y="490" />
            </Array>
          </mxGeometry>
        </mxCell>
        <mxCell id="A8h4FRGPuFYih__TEGHA-1" value="Library" style="swimlane;fontStyle=0;align=center;verticalAlign=top;childLayout=stackLayout;horizontal=1;startSize=26;horizontalStack=0;resizeParent=1;resizeLast=0;collapsible=1;marginBottom=0;rounded=0;shadow=0;strokeWidth=1;" vertex="1" parent="1">
          <mxGeometry x="450" y="40" width="310" height="280" as="geometry">
            <mxRectangle x="130" y="380" width="160" height="26" as="alternateBounds" />
          </mxGeometry>
        </mxCell>
        <mxCell id="A8h4FRGPuFYih__TEGHA-2" value="+books:ArrayList&lt;Book&gt;&#xa;+users:ArrayList&lt;User&gt;" style="text;align=left;verticalAlign=top;spacingLeft=4;spacingRight=4;overflow=hidden;rotatable=0;points=[[0,0.5],[1,0.5]];portConstraint=eastwest;" vertex="1" parent="A8h4FRGPuFYih__TEGHA-1">
          <mxGeometry y="26" width="310" height="40" as="geometry" />
        </mxCell>
        <mxCell id="A8h4FRGPuFYih__TEGHA-3" value="" style="line;html=1;strokeWidth=1;align=left;verticalAlign=middle;spacingTop=-1;spacingLeft=3;spacingRight=3;rotatable=0;labelPosition=right;points=[];portConstraint=eastwest;" vertex="1" parent="A8h4FRGPuFYih__TEGHA-1">
          <mxGeometry y="66" width="310" height="8" as="geometry" />
        </mxCell>
        <mxCell id="A8h4FRGPuFYih__TEGHA-4" value="&lt;u&gt;+fuzzy_search_book(search_key:String)&lt;/u&gt;&lt;br&gt;&lt;u&gt;+getBookbyTitle(book_title:String)&lt;/u&gt;&lt;br&gt;&lt;u&gt;+updat_book_db()&lt;/u&gt;&lt;br&gt;&lt;u&gt;+update_user_db()&lt;/u&gt;&lt;br&gt;&lt;u&gt;+db_import()&lt;/u&gt;&lt;br&gt;&lt;u&gt;+checkIdentity(account:String, password:String)&lt;/u&gt;&lt;br&gt;&lt;u&gt;+Login_GUI()&lt;/u&gt;&lt;br&gt;&lt;u&gt;+SignUp_GUI()&lt;/u&gt;&lt;br&gt;&lt;u&gt;+CheckAccount(acc:String)&lt;/u&gt;&lt;br&gt;&lt;u&gt;+CheckPassword(pw:String)&lt;/u&gt;&lt;br&gt;&lt;u&gt;+AddAccount(id:String,user_name:String,account:string&lt;/u&gt;&lt;br&gt;&lt;span style=&quot;white-space: pre;&quot;&gt;	&lt;/span&gt;&lt;u&gt;,password:String)&lt;br&gt;+actionPerformed(a:ActionEvent)&lt;/u&gt;&lt;br&gt;&lt;br&gt;&lt;br&gt;" style="text;whiteSpace=wrap;html=1;" vertex="1" parent="A8h4FRGPuFYih__TEGHA-1">
          <mxGeometry y="74" width="310" height="190" as="geometry" />
        </mxCell>
        <mxCell id="f-epn9md9rAOT0gySL9H-2" style="edgeStyle=orthogonalEdgeStyle;rounded=0;orthogonalLoop=1;jettySize=auto;html=1;entryX=0.5;entryY=0;entryDx=0;entryDy=0;dashed=1;strokeColor=default;endArrow=block;endFill=0;" edge="1" parent="1" target="9Wcd23R5gDiXODAYeB8w-16">
          <mxGeometry relative="1" as="geometry">
            <mxPoint x="605" y="320" as="sourcePoint" />
            <Array as="points">
              <mxPoint x="605" y="347" />
              <mxPoint x="720" y="347" />
            </Array>
          </mxGeometry>
        </mxCell>
        <mxCell id="f-epn9md9rAOT0gySL9H-3" value="User" style="swimlane;fontStyle=2;align=center;verticalAlign=top;childLayout=stackLayout;horizontal=1;startSize=26;horizontalStack=0;resizeParent=1;resizeLast=0;collapsible=1;marginBottom=0;rounded=0;shadow=0;strokeWidth=1;" vertex="1" parent="1">
          <mxGeometry x="422" y="840" width="184" height="256" as="geometry">
            <mxRectangle x="312" y="24" width="160" height="26" as="alternateBounds" />
          </mxGeometry>
        </mxCell>
        <mxCell id="f-epn9md9rAOT0gySL9H-4" value="-name:String&#xa;-account:String&#xa;-password:String&#xa;-identity:String" style="text;align=left;verticalAlign=top;spacingLeft=4;spacingRight=4;overflow=hidden;rotatable=0;points=[[0,0.5],[1,0.5]];portConstraint=eastwest;" vertex="1" parent="f-epn9md9rAOT0gySL9H-3">
          <mxGeometry y="26" width="184" height="62" as="geometry" />
        </mxCell>
        <mxCell id="f-epn9md9rAOT0gySL9H-5" value="" style="line;html=1;strokeWidth=1;align=left;verticalAlign=middle;spacingTop=-1;spacingLeft=3;spacingRight=3;rotatable=0;labelPosition=right;points=[];portConstraint=eastwest;" vertex="1" parent="f-epn9md9rAOT0gySL9H-3">
          <mxGeometry y="88" width="184" height="16" as="geometry" />
        </mxCell>
        <mxCell id="f-epn9md9rAOT0gySL9H-6" value="+search()&#xa;+setName(name:String)&#xa;+getName():String&#xa;+setAccount(account:String)&#xa;+getAccount():String&#xa;+setPassword(password:String)&#xa;+getPassword():String&#xa;+setIdentity(identity:String)&#xa;+getIdentity():String" style="text;align=left;verticalAlign=top;spacingLeft=4;spacingRight=4;overflow=hidden;rotatable=0;points=[[0,0.5],[1,0.5]];portConstraint=eastwest;" vertex="1" parent="f-epn9md9rAOT0gySL9H-3">
          <mxGeometry y="104" width="184" height="144" as="geometry" />
        </mxCell>
        <mxCell id="f-epn9md9rAOT0gySL9H-7" value="" style="resizable=0;align=left;verticalAlign=bottom;labelBackgroundColor=none;fontSize=12;spacing=2;" connectable="0" vertex="1" parent="1">
          <mxGeometry x="582" y="919" as="geometry" />
        </mxCell>
        <mxCell id="f-epn9md9rAOT0gySL9H-8" value="" style="endArrow=block;endSize=10;endFill=0;shadow=0;strokeWidth=1;rounded=0;edgeStyle=elbowEdgeStyle;elbow=vertical;" edge="1" parent="1">
          <mxGeometry width="160" relative="1" as="geometry">
            <mxPoint x="629" y="1198" as="sourcePoint" />
            <mxPoint x="519" y="1096" as="targetPoint" />
          </mxGeometry>
        </mxCell>
        <mxCell id="f-epn9md9rAOT0gySL9H-9" value="" style="endArrow=block;endSize=10;endFill=0;shadow=0;strokeWidth=1;rounded=0;edgeStyle=elbowEdgeStyle;elbow=vertical;" edge="1" parent="1">
          <mxGeometry width="160" relative="1" as="geometry">
            <mxPoint x="419" y="1198" as="sourcePoint" />
            <mxPoint x="519" y="1096" as="targetPoint" />
          </mxGeometry>
        </mxCell>
        <mxCell id="f-epn9md9rAOT0gySL9H-10" value="Member" style="swimlane;fontStyle=2;align=center;verticalAlign=top;childLayout=stackLayout;horizontal=1;startSize=26;horizontalStack=0;resizeParent=1;resizeLast=0;collapsible=1;marginBottom=0;rounded=0;shadow=0;strokeWidth=1;" vertex="1" parent="1">
          <mxGeometry x="310" y="1200" width="176" height="344" as="geometry">
            <mxRectangle x="230" y="740" width="160" height="26" as="alternateBounds" />
          </mxGeometry>
        </mxCell>
        <mxCell id="f-epn9md9rAOT0gySL9H-11" value="-limit_book:int&#xa;-fine:int&#xa;-due_date:int&#xa;#borrowing:ArrayList&lt;Book&gt;&#xa;#books:ArrayList&lt;Book&gt;&#xa;#history:ArrayList&lt;Book&gt;&#xa;" style="text;align=left;verticalAlign=top;spacingLeft=4;spacingRight=4;overflow=hidden;rotatable=0;points=[[0,0.5],[1,0.5]];portConstraint=eastwest;" vertex="1" parent="f-epn9md9rAOT0gySL9H-10">
          <mxGeometry y="26" width="176" height="96" as="geometry" />
        </mxCell>
        <mxCell id="f-epn9md9rAOT0gySL9H-12" value="" style="line;html=1;strokeWidth=1;align=left;verticalAlign=middle;spacingTop=-1;spacingLeft=3;spacingRight=3;rotatable=0;labelPosition=right;points=[];portConstraint=eastwest;" vertex="1" parent="f-epn9md9rAOT0gySL9H-10">
          <mxGeometry y="122" width="176" height="19" as="geometry" />
        </mxCell>
        <mxCell id="f-epn9md9rAOT0gySL9H-13" value="+borrowBook()&#xa;+borrowBook_parameter()&#xa;+returnBook()&#xa;+searchBook()&#xa;+check_limit_book()&#xa;+show_information()&#xa;+show_history()&#xa;+setLimit_book(limit_book:int)&#xa;+getLimit_book():int&#xa;+setFine(fine:int)&#xa;+getFine():int&#xa;+setDue_date(due_date:int)&#xa;+getDue_date():int&#xa;&#xa;" style="text;align=left;verticalAlign=top;spacingLeft=4;spacingRight=4;overflow=hidden;rotatable=0;points=[[0,0.5],[1,0.5]];portConstraint=eastwest;" vertex="1" parent="f-epn9md9rAOT0gySL9H-10">
          <mxGeometry y="141" width="176" height="192" as="geometry" />
        </mxCell>
        <mxCell id="f-epn9md9rAOT0gySL9H-14" value="" style="resizable=0;align=left;verticalAlign=bottom;labelBackgroundColor=none;fontSize=12;" connectable="0" vertex="1" parent="1">
          <mxGeometry x="470" y="1273" as="geometry" />
        </mxCell>
        <mxCell id="f-epn9md9rAOT0gySL9H-15" value="Administrator" style="swimlane;fontStyle=2;align=center;verticalAlign=top;childLayout=stackLayout;horizontal=1;startSize=26;horizontalStack=0;resizeParent=1;resizeLast=0;collapsible=1;marginBottom=0;rounded=0;shadow=0;strokeWidth=1;" vertex="1" parent="1">
          <mxGeometry x="590" y="1200" width="160" height="146" as="geometry">
            <mxRectangle x="230" y="740" width="160" height="26" as="alternateBounds" />
          </mxGeometry>
        </mxCell>
        <mxCell id="f-epn9md9rAOT0gySL9H-16" value="-books:ArrayList&lt;Book&gt;" style="text;align=left;verticalAlign=top;spacingLeft=4;spacingRight=4;overflow=hidden;rotatable=0;points=[[0,0.5],[1,0.5]];portConstraint=eastwest;" vertex="1" parent="f-epn9md9rAOT0gySL9H-15">
          <mxGeometry y="26" width="160" height="24" as="geometry" />
        </mxCell>
        <mxCell id="f-epn9md9rAOT0gySL9H-17" value="" style="line;html=1;strokeWidth=1;align=left;verticalAlign=middle;spacingTop=-1;spacingLeft=3;spacingRight=3;rotatable=0;labelPosition=right;points=[];portConstraint=eastwest;" vertex="1" parent="f-epn9md9rAOT0gySL9H-15">
          <mxGeometry y="50" width="160" height="8" as="geometry" />
        </mxCell>
        <mxCell id="f-epn9md9rAOT0gySL9H-18" value="+mainPage_administrator()&#xa;+addBook()&#xa;+modifyBook()&#xa;+deleteBook()&#xa;+show_information()" style="text;align=left;verticalAlign=top;spacingLeft=4;spacingRight=4;overflow=hidden;rotatable=0;points=[[0,0.5],[1,0.5]];portConstraint=eastwest;" vertex="1" parent="f-epn9md9rAOT0gySL9H-15">
          <mxGeometry y="58" width="160" height="88" as="geometry" />
        </mxCell>
        <mxCell id="f-epn9md9rAOT0gySL9H-19" value="" style="resizable=0;align=left;verticalAlign=bottom;labelBackgroundColor=none;fontSize=12;" connectable="0" vertex="1" parent="1">
          <mxGeometry x="750" y="1273" as="geometry" />
        </mxCell>
        <mxCell id="f-epn9md9rAOT0gySL9H-20" value="" style="endArrow=block;endSize=10;endFill=0;shadow=0;strokeWidth=1;rounded=0;edgeStyle=elbowEdgeStyle;elbow=vertical;" edge="1" parent="1">
          <mxGeometry width="160" relative="1" as="geometry">
            <mxPoint x="629" y="1198" as="sourcePoint" />
            <mxPoint x="519" y="1096" as="targetPoint" />
          </mxGeometry>
        </mxCell>
        <mxCell id="f-epn9md9rAOT0gySL9H-21" value="" style="endArrow=block;endSize=10;endFill=0;shadow=0;strokeWidth=1;rounded=0;edgeStyle=elbowEdgeStyle;elbow=vertical;" edge="1" parent="1">
          <mxGeometry width="160" relative="1" as="geometry">
            <mxPoint x="419" y="1198" as="sourcePoint" />
            <mxPoint x="519" y="1096" as="targetPoint" />
          </mxGeometry>
        </mxCell>
        <mxCell id="f-epn9md9rAOT0gySL9H-22" value="" style="endArrow=block;endSize=10;endFill=0;shadow=0;strokeWidth=1;rounded=0;edgeStyle=elbowEdgeStyle;elbow=vertical;exitX=0.6;exitY=0;exitDx=0;exitDy=0;exitPerimeter=0;" edge="1" parent="1" source="f-epn9md9rAOT0gySL9H-31">
          <mxGeometry width="160" relative="1" as="geometry">
            <mxPoint x="854" y="1638" as="sourcePoint" />
            <mxPoint x="393" y="1544" as="targetPoint" />
            <Array as="points">
              <mxPoint x="622" y="1595" />
            </Array>
          </mxGeometry>
        </mxCell>
        <mxCell id="f-epn9md9rAOT0gySL9H-23" value="" style="endArrow=block;endSize=10;endFill=0;shadow=0;strokeWidth=1;rounded=0;edgeStyle=elbowEdgeStyle;elbow=vertical;" edge="1" parent="1">
          <mxGeometry width="160" relative="1" as="geometry">
            <mxPoint x="182" y="1646" as="sourcePoint" />
            <mxPoint x="393" y="1544" as="targetPoint" />
          </mxGeometry>
        </mxCell>
        <mxCell id="f-epn9md9rAOT0gySL9H-24" value="" style="endArrow=none;html=1;rounded=0;exitX=0.5;exitY=0;exitDx=0;exitDy=0;" edge="1" parent="1" source="f-epn9md9rAOT0gySL9H-28">
          <mxGeometry width="50" height="50" relative="1" as="geometry">
            <mxPoint x="520" y="1638" as="sourcePoint" />
            <mxPoint x="518" y="1598" as="targetPoint" />
          </mxGeometry>
        </mxCell>
        <mxCell id="f-epn9md9rAOT0gySL9H-25" value="Student" style="swimlane;fontStyle=0;align=center;verticalAlign=top;childLayout=stackLayout;horizontal=1;startSize=26;horizontalStack=0;resizeParent=1;resizeLast=0;collapsible=1;marginBottom=0;rounded=0;shadow=0;strokeWidth=1;" vertex="1" parent="1">
          <mxGeometry x="150" y="1646" width="160" height="138" as="geometry">
            <mxRectangle x="130" y="380" width="160" height="26" as="alternateBounds" />
          </mxGeometry>
        </mxCell>
        <mxCell id="f-epn9md9rAOT0gySL9H-26" value="  " style="text;align=left;verticalAlign=top;spacingLeft=4;spacingRight=4;overflow=hidden;rotatable=0;points=[[0,0.5],[1,0.5]];portConstraint=eastwest;" vertex="1" parent="f-epn9md9rAOT0gySL9H-25">
          <mxGeometry y="26" width="160" height="26" as="geometry" />
        </mxCell>
        <mxCell id="f-epn9md9rAOT0gySL9H-27" value="" style="line;html=1;strokeWidth=1;align=left;verticalAlign=middle;spacingTop=-1;spacingLeft=3;spacingRight=3;rotatable=0;labelPosition=right;points=[];portConstraint=eastwest;" vertex="1" parent="f-epn9md9rAOT0gySL9H-25">
          <mxGeometry y="52" width="160" height="8" as="geometry" />
        </mxCell>
        <mxCell id="f-epn9md9rAOT0gySL9H-28" value="Staff" style="swimlane;fontStyle=0;align=center;verticalAlign=top;childLayout=stackLayout;horizontal=1;startSize=26;horizontalStack=0;resizeParent=1;resizeLast=0;collapsible=1;marginBottom=0;rounded=0;shadow=0;strokeWidth=1;" vertex="1" parent="1">
          <mxGeometry x="438" y="1646" width="160" height="138" as="geometry">
            <mxRectangle x="130" y="380" width="160" height="26" as="alternateBounds" />
          </mxGeometry>
        </mxCell>
        <mxCell id="f-epn9md9rAOT0gySL9H-29" value="  &#xa;" style="text;align=left;verticalAlign=top;spacingLeft=4;spacingRight=4;overflow=hidden;rotatable=0;points=[[0,0.5],[1,0.5]];portConstraint=eastwest;" vertex="1" parent="f-epn9md9rAOT0gySL9H-28">
          <mxGeometry y="26" width="160" height="26" as="geometry" />
        </mxCell>
        <mxCell id="f-epn9md9rAOT0gySL9H-30" value="" style="line;html=1;strokeWidth=1;align=left;verticalAlign=middle;spacingTop=-1;spacingLeft=3;spacingRight=3;rotatable=0;labelPosition=right;points=[];portConstraint=eastwest;" vertex="1" parent="f-epn9md9rAOT0gySL9H-28">
          <mxGeometry y="52" width="160" height="8" as="geometry" />
        </mxCell>
        <mxCell id="f-epn9md9rAOT0gySL9H-31" value="Teacher" style="swimlane;fontStyle=0;align=center;verticalAlign=top;childLayout=stackLayout;horizontal=1;startSize=26;horizontalStack=0;resizeParent=1;resizeLast=0;collapsible=1;marginBottom=0;rounded=0;shadow=0;strokeWidth=1;" vertex="1" parent="1">
          <mxGeometry x="758" y="1646" width="160" height="138" as="geometry">
            <mxRectangle x="130" y="380" width="160" height="26" as="alternateBounds" />
          </mxGeometry>
        </mxCell>
        <mxCell id="f-epn9md9rAOT0gySL9H-32" value="  &#xa;" style="text;align=left;verticalAlign=top;spacingLeft=4;spacingRight=4;overflow=hidden;rotatable=0;points=[[0,0.5],[1,0.5]];portConstraint=eastwest;" vertex="1" parent="f-epn9md9rAOT0gySL9H-31">
          <mxGeometry y="26" width="160" height="26" as="geometry" />
        </mxCell>
        <mxCell id="f-epn9md9rAOT0gySL9H-33" value="" style="line;html=1;strokeWidth=1;align=left;verticalAlign=middle;spacingTop=-1;spacingLeft=3;spacingRight=3;rotatable=0;labelPosition=right;points=[];portConstraint=eastwest;" vertex="1" parent="f-epn9md9rAOT0gySL9H-31">
          <mxGeometry y="52" width="160" height="8" as="geometry" />
        </mxCell>
      </root>
    </mxGraphModel>
  </diagram>
</mxfile>
